<svg xmlns="http://www.w3.org/2000/svg" xmlns:xlink="http://www.w3.org/1999/xlink" xmlns:fi="http://pattern.flaticon.com/" x="0" y="0" width="700" height="350" viewBox="0 0 700 350"><rect x="0px" y="0px" width="100%" height="100%" opacity="1" fill="#ffffff"/><defs><g transform="matrix(0.149934783577919 0 0 0.149934783577919 105.99999597343106 31)" id="L1_1"><path d="M201.38,88.422c113.12-12.44,149.88-84,150-84c1.856-3.567,6.252-4.953,9.819-3.097  c1.799,0.936,3.126,2.581,3.661,4.537c37.6,127.52,17.08,215.44-26.08,267.6c-16.709,20.331-38.11,36.296-62.36,46.52  c-22.339,9.474-46.587,13.584-70.8,12c-46.36-3.24-88.68-28-108.32-72.36c-5.032-11.34-8.284-23.388-9.64-35.72  c-2.743-24.717,2.083-49.685,13.84-71.6c12.622-23.385,32.719-41.863,57.08-52.48C172.173,93.833,186.611,89.988,201.38,88.422  L201.38,88.422z" fill="#45b549"/><path d="M350.58,7.102c0.099-4.019,3.437-7.198,7.456-7.099c4.019,0.099,7.198,3.437,7.099,7.456  c-0.007,0.296-0.033,0.59-0.076,0.883c0,0.36-6.36,84-88,168.64l-0.76,0.8c-19.18,19.673-40.226,37.436-62.84,53.04l49.04,9.12  c3.909,0.943,6.313,4.876,5.37,8.784c-0.854,3.538-4.189,5.902-7.81,5.536l-64-12c-58.36,36.96-157.28,71.08-165.92,151.6  c-0.535,3.985-4.199,6.782-8.184,6.247c-3.793-0.509-6.544-3.868-6.296-7.687c10.32-96.52,108.4-121.36,174.56-163.56l0.92-0.6  c26.403-16.71,50.861-36.311,72.92-58.44l-5.8-57.4c-0.535-3.985,2.262-7.649,6.247-8.184s7.649,2.262,8.184,6.247  c0.022,0.165,0.039,0.331,0.049,0.497l4.4,44.56C345.18,79.142,350.54,7.422,350.58,7.102L350.58,7.102z" fill="#009549"/></g><g transform="matrix(-0.149934783577919 0 0 0.149934783577919 342.28456079682826 150)" id="L1_2"><path d="M201.38,88.422c113.12-12.44,149.88-84,150-84c1.856-3.567,6.252-4.953,9.819-3.097  c1.799,0.936,3.126,2.581,3.661,4.537c37.6,127.52,17.08,215.44-26.08,267.6c-16.709,20.331-38.11,36.296-62.36,46.52  c-22.339,9.474-46.587,13.584-70.8,12c-46.36-3.24-88.68-28-108.32-72.36c-5.032-11.34-8.284-23.388-9.64-35.72  c-2.743-24.717,2.083-49.685,13.84-71.6c12.622-23.385,32.719-41.863,57.08-52.48C172.173,93.833,186.611,89.988,201.38,88.422  L201.38,88.422z" fill="#45b549"/><path d="M350.58,7.102c0.099-4.019,3.437-7.198,7.456-7.099c4.019,0.099,7.198,3.437,7.099,7.456  c-0.007,0.296-0.033,0.59-0.076,0.883c0,0.36-6.36,84-88,168.64l-0.76,0.8c-19.18,19.673-40.226,37.436-62.84,53.04l49.04,9.12  c3.909,0.943,6.313,4.876,5.37,8.784c-0.854,3.538-4.189,5.902-7.81,5.536l-64-12c-58.36,36.96-157.28,71.08-165.92,151.6  c-0.535,3.985-4.199,6.782-8.184,6.247c-3.793-0.509-6.544-3.868-6.296-7.687c10.32-96.52,108.4-121.36,174.56-163.56l0.92-0.6  c26.403-16.71,50.861-36.311,72.92-58.44l-5.8-57.4c-0.535-3.985,2.262-7.649,6.247-8.184s7.649,2.262,8.184,6.247  c0.022,0.165,0.039,0.331,0.049,0.497l4.4,44.56C345.18,79.142,350.54,7.422,350.58,7.102L350.58,7.102z" fill="#009549"/></g></defs><g fi:class="KUsePattern" opacity="0.25"><pattern id="pattern_L1_1" width="350" height="350" patternUnits="userSpaceOnUse"><use xlink:href="#L1_1" x="-350" y="-350"/><use xlink:href="#L1_1" x="0" y="-350"/><use xlink:href="#L1_1" x="350" y="-350"/><use xlink:href="#L1_1" x="-350" y="0"/><use xlink:href="#L1_1" x="0" y="0"/><use xlink:href="#L1_1" x="350" y="0"/><use xlink:href="#L1_1" x="-350" y="350"/><use xlink:href="#L1_1" x="0" y="350"/><use xlink:href="#L1_1" x="350" y="350"/></pattern><rect x="0" y="0" width="100%" height="100%" fill="url(#pattern_L1_1)"/></g><g fi:class="KUsePattern" opacity="0.25"><pattern id="pattern_L1_2" width="350" height="350" patternUnits="userSpaceOnUse"><use xlink:href="#L1_2" x="-350" y="-350"/><use xlink:href="#L1_2" x="0" y="-350"/><use xlink:href="#L1_2" x="350" y="-350"/><use xlink:href="#L1_2" x="-350" y="0"/><use xlink:href="#L1_2" x="0" y="0"/><use xlink:href="#L1_2" x="350" y="0"/><use xlink:href="#L1_2" x="-350" y="350"/><use xlink:href="#L1_2" x="0" y="350"/><use xlink:href="#L1_2" x="350" y="350"/></pattern><rect x="0" y="0" width="100%" height="100%" fill="url(#pattern_L1_2)"/></g></svg>